<?xml version="1.0" standalone="no"?>
<!DOCTYPE svg PUBLIC "-//W3C//DTD SVG 20010904//EN"
 "http://www.w3.org/TR/2001/REC-SVG-20010904/DTD/svg10.dtd">
<svg version="1.0" xmlns="http://www.w3.org/2000/svg"
 width="50.000000pt" height="50.000000pt" viewBox="0 0 50.000000 50.000000"
 preserveAspectRatio="xMidYMid meet">
<metadata>
Created by potrace 1.16, written by Peter Selinger 2001-2019
</metadata>
<g transform="translate(0.000000,50.000000) scale(0.051020,-0.051546)"
fill="#85ff44" stroke="none">
<path d="M700 909 c0 -6 -6 -9 -14 -6 -33 13 -119 -75 -171 -175 -11 -21 -23
-38 -27 -38 -4 0 -15 15 -24 33 -28 54 -102 134 -149 160 -25 14 -45 23 -45
20 0 -3 32 -39 70 -80 73 -78 120 -162 120 -211 -1 -24 -3 -23 -25 19 -33 64
-123 143 -193 169 -46 18 -70 21 -124 17 -37 -3 -76 -11 -87 -16 -19 -11 -19
-12 6 -86 13 -41 29 -75 34 -75 12 0 12 27 -1 32 -5 2 -7 14 -3 26 4 18 8 20
14 10 7 -10 9 -10 9 3 0 21 41 58 76 69 l29 8 -30 1 c-16 1 -37 6 -45 12 -11
8 -8 9 15 5 17 -3 47 -8 68 -12 20 -3 37 -11 37 -17 0 -6 3 -8 6 -4 11 10 64
-22 114 -69 54 -51 95 -133 106 -211 3 -29 4 -53 2 -53 -3 0 -21 24 -40 53
-45 67 -198 205 -182 164 3 -8 17 -20 31 -28 43 -23 125 -121 156 -187 38 -82
45 -139 23 -197 -22 -57 -34 -65 -33 -20 2 68 -38 106 -157 149 -74 26 -117
61 -146 116 -11 19 -19 28 -20 19 0 -24 54 -95 89 -115 38 -23 39 -33 1 -69
-34 -33 -70 -105 -69 -137 1 -22 1 -22 8 2 11 34 41 91 57 107 22 22 27 14 9
-14 l-18 -26 32 22 c30 22 43 17 19 -7 -6 -6 -8 -15 -3 -19 4 -5 10 -2 12 5 3
6 10 9 16 5 6 -4 8 -1 5 8 -4 10 1 15 12 15 14 0 8 -13 -27 -54 -52 -64 -48
-84 5 -27 20 22 46 47 57 55 19 14 19 14 5 -4 -14 -18 -13 -18 10 -13 14 4 20
4 14 1 -20 -9 7 -55 29 -48 9 3 17 0 17 -6 0 -7 7 -10 15 -6 22 8 18 -4 -11
-31 -44 -41 -70 -54 -175 -88 -55 -18 -95 -35 -88 -37 17 -6 189 54 232 81 45
28 81 68 111 125 l26 49 24 -54 c25 -57 71 -107 121 -132 46 -23 186 -67 214
-67 23 0 24 1 18 78 -7 105 -21 143 -72 206 l-44 54 24 16 c69 45 100 96 121
199 8 40 31 104 50 144 52 108 53 106 -70 101 -88 -4 -113 -9 -161 -33 -56
-27 -119 -81 -163 -139 -30 -39 -37 -28 -16 25 19 48 64 108 130 174 39 37 55
65 39 65 -3 0 -5 -5 -5 -11z m152 -154 c25 -24 49 -50 52 -57 3 -7 4 5 1 27
-4 35 -3 37 6 15 8 -19 7 -39 -5 -80 -8 -30 -22 -80 -30 -111 -27 -98 -81
-147 -218 -194 -65 -23 -108 -73 -108 -128 l-1 -42 -21 40 c-52 96 -12 228
105 343 35 35 78 73 95 84 18 11 32 22 32 24 0 11 -28 1 -52 -19 -15 -12 -42
-34 -62 -49 -38 -30 -126 -140 -126 -157 0 -6 -4 -11 -9 -11 -13 0 -1 89 22
149 13 36 37 72 71 106 52 53 108 89 120 78 3 -4 6 -1 6 5 0 10 22 17 61 21 8
0 36 -19 61 -44z m-32 -506 c20 -38 47 -196 35 -207 -3 -3 -50 10 -106 28 -75
25 -112 44 -143 72 -28 26 -36 37 -24 38 9 0 22 -8 27 -17 7 -13 10 -14 11 -4
0 8 -8 20 -17 27 -10 7 -15 16 -11 20 4 4 14 1 23 -6 19 -15 32 -6 17 12 -11
15 10 42 24 30 4 -4 4 2 0 12 -7 20 -7 20 16 1 13 -11 40 -35 61 -55 l39 -35
-18 37 c-17 36 -17 37 7 66 13 16 27 27 32 25 4 -2 16 -22 27 -44z"/>
</g>
</svg>
